M48
INCH
T85C0.020
T84C0.016
T83C0.013
T82C0.130
T81C0.030
T80C0.031
T79C0.060
%
T83
X009281Y010000
X009281Y011800
X009700Y013100
X010200Y012210
X010609Y016100
X012200Y017400
X010409Y013100
X014200Y015400
X010909Y012210
X009900Y010300
X006300Y011800
X007200Y014000
X006900Y009309
X006300Y010000
X004700Y012210
X005409Y012210
X005700Y009800
X007700Y007000
X006900Y008600
X006800Y020300
X015600Y018300
X021100Y019909
X021100Y019200
X016309Y018300
X022300Y019100
X019900Y023100
X020609Y023100
X022300Y020281
X022300Y021100
X022300Y022281
T84
X009000Y013100
X009000Y013700
X014000Y012100
X012000Y011100
X014000Y010100
X001600Y010100
X001600Y012100
X003600Y011100
X006700Y007000
X008700Y007000
T85
X007700Y008200
T81
X016900Y016200
X016900Y014200
X020500Y015100
X022500Y015100
X024800Y019000
X024800Y017000
T80
X021500Y018100
X017563Y018100
X016937Y023800
X013000Y023800
T79
X019900Y019900
X019900Y020900
X019900Y021900
T82
X013200Y020900
M30
