G04 start of page 5 for group 3 idx 3 *
G04 Title: (unknown), Vee *
G04 Creator: pcb 20110918 *
G04 CreationDate: Wed 16 Apr 2014 03:02:33 AM GMT UTC *
G04 For: commonadmin *
G04 Format: Gerber/RS-274X *
G04 PCB-Dimensions: 300000 250000 *
G04 PCB-Coordinate-Origin: lower left *
%MOIN*%
%FSLAX25Y25*%
%LNBOTTOM*%
%ADD77C,0.1300*%
%ADD76C,0.0315*%
%ADD75C,0.0200*%
%ADD74C,0.0160*%
%ADD73C,0.0130*%
%ADD72C,0.0360*%
%ADD71C,0.0270*%
%ADD70C,0.0300*%
%ADD69C,0.0984*%
%ADD68C,0.1500*%
%ADD67C,0.0600*%
%ADD66C,0.0900*%
%ADD65C,0.0250*%
%ADD64C,0.0001*%
G54D64*G36*
X74000Y43000D02*X66996D01*
Y67493D01*
X67000Y67492D01*
X67392Y67523D01*
X67775Y67615D01*
X68138Y67766D01*
X68474Y67971D01*
X68773Y68227D01*
X69029Y68526D01*
X69234Y68862D01*
X69385Y69225D01*
X69477Y69608D01*
X69500Y70000D01*
X69477Y70392D01*
X69385Y70775D01*
X69234Y71138D01*
X69029Y71474D01*
X68773Y71773D01*
X68474Y72029D01*
X68138Y72234D01*
X67775Y72385D01*
X67392Y72477D01*
X67000Y72508D01*
X66996Y72507D01*
Y89000D01*
X74000D01*
Y43000D01*
G37*
G36*
X66996D02*X64000D01*
Y89000D01*
X66996D01*
Y72507D01*
X66608Y72477D01*
X66225Y72385D01*
X65862Y72234D01*
X65526Y72029D01*
X65227Y71773D01*
X64971Y71474D01*
X64766Y71138D01*
X64615Y70775D01*
X64523Y70392D01*
X64492Y70000D01*
X64523Y69608D01*
X64615Y69225D01*
X64766Y68862D01*
X64971Y68526D01*
X65227Y68227D01*
X65526Y67971D01*
X65862Y67766D01*
X66225Y67615D01*
X66608Y67523D01*
X66996Y67493D01*
Y43000D01*
G37*
G36*
X65000D02*X7000D01*
Y95000D01*
X65000D01*
Y93243D01*
X64988Y93086D01*
X65000Y92929D01*
Y71508D01*
X64971Y71474D01*
X64766Y71138D01*
X64615Y70775D01*
X64523Y70392D01*
X64492Y70000D01*
X64523Y69608D01*
X64615Y69225D01*
X64766Y68862D01*
X64971Y68526D01*
X65000Y68492D01*
Y43000D01*
G37*
G36*
X35996Y118000D02*X44000D01*
Y94000D01*
X35996D01*
Y108493D01*
X36000Y108492D01*
X36392Y108523D01*
X36775Y108615D01*
X37138Y108766D01*
X37474Y108971D01*
X37773Y109227D01*
X38029Y109526D01*
X38234Y109862D01*
X38385Y110225D01*
X38477Y110608D01*
X38500Y111000D01*
X38477Y111392D01*
X38385Y111775D01*
X38234Y112138D01*
X38029Y112474D01*
X37773Y112773D01*
X37474Y113029D01*
X37138Y113234D01*
X36775Y113385D01*
X36392Y113477D01*
X36000Y113508D01*
X35996Y113507D01*
Y118000D01*
G37*
G36*
X15996D02*X35996D01*
Y113507D01*
X35608Y113477D01*
X35225Y113385D01*
X34862Y113234D01*
X34526Y113029D01*
X34227Y112773D01*
X33971Y112474D01*
X33766Y112138D01*
X33615Y111775D01*
X33523Y111392D01*
X33492Y111000D01*
X33523Y110608D01*
X33615Y110225D01*
X33766Y109862D01*
X33971Y109526D01*
X34227Y109227D01*
X34526Y108971D01*
X34862Y108766D01*
X35225Y108615D01*
X35608Y108523D01*
X35996Y108493D01*
Y94000D01*
X15996D01*
Y98493D01*
X16000Y98492D01*
X16392Y98523D01*
X16775Y98615D01*
X17138Y98766D01*
X17474Y98971D01*
X17773Y99227D01*
X18029Y99526D01*
X18234Y99862D01*
X18385Y100225D01*
X18477Y100608D01*
X18500Y101000D01*
X18477Y101392D01*
X18385Y101775D01*
X18234Y102138D01*
X18029Y102474D01*
X17773Y102773D01*
X17474Y103029D01*
X17138Y103234D01*
X16775Y103385D01*
X16392Y103477D01*
X16000Y103508D01*
X15996Y103507D01*
Y118000D01*
G37*
G36*
X7000Y94000D02*Y118000D01*
X15996D01*
Y103507D01*
X15608Y103477D01*
X15225Y103385D01*
X14862Y103234D01*
X14526Y103029D01*
X14227Y102773D01*
X13971Y102474D01*
X13766Y102138D01*
X13615Y101775D01*
X13523Y101392D01*
X13492Y101000D01*
X13523Y100608D01*
X13615Y100225D01*
X13766Y99862D01*
X13971Y99526D01*
X14227Y99227D01*
X14526Y98971D01*
X14862Y98766D01*
X15225Y98615D01*
X15608Y98523D01*
X15996Y98493D01*
Y94000D01*
X7000D01*
G37*
G36*
X43000Y117000D02*X15996D01*
Y118493D01*
X16000Y118492D01*
X16392Y118523D01*
X16775Y118615D01*
X17138Y118766D01*
X17474Y118971D01*
X17773Y119227D01*
X18029Y119526D01*
X18234Y119862D01*
X18385Y120225D01*
X18477Y120608D01*
X18500Y121000D01*
X18477Y121392D01*
X18385Y121775D01*
X18234Y122138D01*
X18029Y122474D01*
X17773Y122773D01*
X17474Y123029D01*
X17138Y123234D01*
X16775Y123385D01*
X16392Y123477D01*
X16000Y123508D01*
X15996Y123507D01*
Y128000D01*
X43000D01*
Y122257D01*
X42988Y122100D01*
X43000Y121943D01*
Y117000D01*
G37*
G36*
X15996D02*X7000D01*
Y128000D01*
X15996D01*
Y123507D01*
X15608Y123477D01*
X15225Y123385D01*
X14862Y123234D01*
X14526Y123029D01*
X14227Y122773D01*
X13971Y122474D01*
X13766Y122138D01*
X13615Y121775D01*
X13523Y121392D01*
X13492Y121000D01*
X13523Y120608D01*
X13615Y120225D01*
X13766Y119862D01*
X13971Y119526D01*
X14227Y119227D01*
X14526Y118971D01*
X14862Y118766D01*
X15225Y118615D01*
X15608Y118523D01*
X15996Y118493D01*
Y117000D01*
G37*
G36*
X7000Y127000D02*Y146000D01*
X62000D01*
Y127000D01*
X7000D01*
G37*
G36*
X146000Y43000D02*X86996D01*
Y67493D01*
X87000Y67492D01*
X87392Y67523D01*
X87775Y67615D01*
X88138Y67766D01*
X88474Y67971D01*
X88773Y68227D01*
X89029Y68526D01*
X89234Y68862D01*
X89385Y69225D01*
X89477Y69608D01*
X89500Y70000D01*
X89477Y70392D01*
X89385Y70775D01*
X89234Y71138D01*
X89029Y71474D01*
X88773Y71773D01*
X88474Y72029D01*
X88138Y72234D01*
X87775Y72385D01*
X87392Y72477D01*
X87000Y72508D01*
X86996Y72507D01*
Y95000D01*
X146000D01*
Y43000D01*
G37*
G36*
X86996D02*X73000D01*
Y95000D01*
X86996D01*
Y72507D01*
X86608Y72477D01*
X86225Y72385D01*
X85862Y72234D01*
X85526Y72029D01*
X85227Y71773D01*
X84971Y71474D01*
X84766Y71138D01*
X84615Y70775D01*
X84523Y70392D01*
X84492Y70000D01*
X84523Y69608D01*
X84615Y69225D01*
X84766Y68862D01*
X84971Y68526D01*
X85227Y68227D01*
X85526Y67971D01*
X85862Y67766D01*
X86225Y67615D01*
X86608Y67523D01*
X86996Y67493D01*
Y43000D01*
G37*
G36*
X139996Y118000D02*X146000D01*
Y94000D01*
X139996D01*
Y98493D01*
X140000Y98492D01*
X140392Y98523D01*
X140775Y98615D01*
X141138Y98766D01*
X141474Y98971D01*
X141773Y99227D01*
X142029Y99526D01*
X142234Y99862D01*
X142385Y100225D01*
X142477Y100608D01*
X142500Y101000D01*
X142477Y101392D01*
X142385Y101775D01*
X142234Y102138D01*
X142029Y102474D01*
X141773Y102773D01*
X141474Y103029D01*
X141138Y103234D01*
X140775Y103385D01*
X140392Y103477D01*
X140000Y103508D01*
X139996Y103507D01*
Y118000D01*
G37*
G36*
X119996D02*X139996D01*
Y103507D01*
X139608Y103477D01*
X139225Y103385D01*
X138862Y103234D01*
X138526Y103029D01*
X138227Y102773D01*
X137971Y102474D01*
X137766Y102138D01*
X137615Y101775D01*
X137523Y101392D01*
X137492Y101000D01*
X137523Y100608D01*
X137615Y100225D01*
X137766Y99862D01*
X137971Y99526D01*
X138227Y99227D01*
X138526Y98971D01*
X138862Y98766D01*
X139225Y98615D01*
X139608Y98523D01*
X139996Y98493D01*
Y94000D01*
X119996D01*
Y108493D01*
X120000Y108492D01*
X120392Y108523D01*
X120775Y108615D01*
X121138Y108766D01*
X121474Y108971D01*
X121773Y109227D01*
X122029Y109526D01*
X122234Y109862D01*
X122385Y110225D01*
X122477Y110608D01*
X122500Y111000D01*
X122477Y111392D01*
X122385Y111775D01*
X122234Y112138D01*
X122029Y112474D01*
X121773Y112773D01*
X121474Y113029D01*
X121138Y113234D01*
X120775Y113385D01*
X120392Y113477D01*
X120000Y113508D01*
X119996Y113507D01*
Y118000D01*
G37*
G36*
X112000Y94000D02*Y118000D01*
X119996D01*
Y113507D01*
X119608Y113477D01*
X119225Y113385D01*
X118862Y113234D01*
X118526Y113029D01*
X118227Y112773D01*
X117971Y112474D01*
X117766Y112138D01*
X117615Y111775D01*
X117523Y111392D01*
X117492Y111000D01*
X117523Y110608D01*
X117615Y110225D01*
X117766Y109862D01*
X117971Y109526D01*
X118227Y109227D01*
X118526Y108971D01*
X118862Y108766D01*
X119225Y108615D01*
X119608Y108523D01*
X119996Y108493D01*
Y94000D01*
X112000D01*
G37*
G36*
X146000Y117000D02*X139996D01*
Y118493D01*
X140000Y118492D01*
X140392Y118523D01*
X140775Y118615D01*
X141138Y118766D01*
X141474Y118971D01*
X141773Y119227D01*
X142029Y119526D01*
X142234Y119862D01*
X142385Y120225D01*
X142477Y120608D01*
X142500Y121000D01*
X142477Y121392D01*
X142385Y121775D01*
X142234Y122138D01*
X142029Y122474D01*
X141773Y122773D01*
X141474Y123029D01*
X141138Y123234D01*
X140775Y123385D01*
X140392Y123477D01*
X140000Y123508D01*
X139996Y123507D01*
Y128000D01*
X146000D01*
Y117000D01*
G37*
G36*
X139996D02*X114000D01*
Y128000D01*
X139996D01*
Y123507D01*
X139608Y123477D01*
X139225Y123385D01*
X138862Y123234D01*
X138526Y123029D01*
X138227Y122773D01*
X137971Y122474D01*
X137766Y122138D01*
X137615Y121775D01*
X137523Y121392D01*
X137492Y121000D01*
X137523Y120608D01*
X137615Y120225D01*
X137766Y119862D01*
X137971Y119526D01*
X138227Y119227D01*
X138526Y118971D01*
X138862Y118766D01*
X139225Y118615D01*
X139608Y118523D01*
X139996Y118493D01*
Y117000D01*
G37*
G36*
X146000Y127000D02*X108000D01*
Y130168D01*
X108049Y130372D01*
X108086Y131000D01*
X108049Y131628D01*
X108000Y131832D01*
Y146000D01*
X146000D01*
Y127000D01*
G37*
G36*
X222994Y246000D02*X228000D01*
Y148000D01*
X222994D01*
Y171614D01*
X223112Y171686D01*
X223760Y172240D01*
X224314Y172888D01*
X224759Y173614D01*
X225085Y174401D01*
X225284Y175230D01*
X225334Y176079D01*
X225284Y186770D01*
X225085Y187599D01*
X224759Y188386D01*
X224314Y189112D01*
X223760Y189760D01*
X223112Y190314D01*
X222994Y190386D01*
Y198798D01*
X223000Y198798D01*
X223628Y198847D01*
X224240Y198994D01*
X224822Y199235D01*
X225358Y199564D01*
X225837Y199973D01*
X226246Y200452D01*
X226575Y200988D01*
X226816Y201570D01*
X226963Y202182D01*
X227000Y202810D01*
X226963Y203438D01*
X226816Y204050D01*
X226575Y204632D01*
X226246Y205168D01*
X225837Y205647D01*
X225358Y206056D01*
X224822Y206385D01*
X224240Y206626D01*
X223628Y206773D01*
X223000Y206822D01*
X222994Y206822D01*
Y206988D01*
X223000Y206988D01*
X223628Y207037D01*
X224240Y207184D01*
X224822Y207425D01*
X225358Y207754D01*
X225837Y208163D01*
X226246Y208642D01*
X226575Y209178D01*
X226816Y209760D01*
X226963Y210372D01*
X227000Y211000D01*
X226963Y211628D01*
X226816Y212240D01*
X226575Y212822D01*
X226246Y213358D01*
X225837Y213837D01*
X225358Y214246D01*
X224822Y214575D01*
X224240Y214816D01*
X223628Y214963D01*
X223000Y215012D01*
X222994Y215012D01*
Y218798D01*
X223000Y218798D01*
X223628Y218847D01*
X224240Y218994D01*
X224822Y219235D01*
X225358Y219564D01*
X225837Y219973D01*
X226246Y220452D01*
X226575Y220988D01*
X226816Y221570D01*
X226963Y222182D01*
X227000Y222810D01*
X226963Y223438D01*
X226816Y224050D01*
X226575Y224632D01*
X226246Y225168D01*
X225837Y225647D01*
X225358Y226056D01*
X224822Y226385D01*
X224240Y226626D01*
X223628Y226773D01*
X223000Y226822D01*
X222994Y226822D01*
Y246000D01*
G37*
G36*
X198994D02*X222994D01*
Y226822D01*
X222372Y226773D01*
X221760Y226626D01*
X221178Y226385D01*
X220642Y226056D01*
X220163Y225647D01*
X219754Y225168D01*
X219425Y224632D01*
X219184Y224050D01*
X219037Y223438D01*
X218988Y222810D01*
X219037Y222182D01*
X219184Y221570D01*
X219425Y220988D01*
X219754Y220452D01*
X220163Y219973D01*
X220642Y219564D01*
X221178Y219235D01*
X221760Y218994D01*
X222372Y218847D01*
X222994Y218798D01*
Y215012D01*
X222372Y214963D01*
X221760Y214816D01*
X221178Y214575D01*
X220642Y214246D01*
X220163Y213837D01*
X219754Y213358D01*
X219425Y212822D01*
X219184Y212240D01*
X219037Y211628D01*
X218988Y211000D01*
X219037Y210372D01*
X219184Y209760D01*
X219425Y209178D01*
X219754Y208642D01*
X220163Y208163D01*
X220642Y207754D01*
X221178Y207425D01*
X221760Y207184D01*
X222372Y207037D01*
X222994Y206988D01*
Y206822D01*
X222372Y206773D01*
X221760Y206626D01*
X221178Y206385D01*
X220642Y206056D01*
X220163Y205647D01*
X219754Y205168D01*
X219425Y204632D01*
X219184Y204050D01*
X219037Y203438D01*
X218988Y202810D01*
X219037Y202182D01*
X219184Y201570D01*
X219425Y200988D01*
X219754Y200452D01*
X220163Y199973D01*
X220642Y199564D01*
X221178Y199235D01*
X221760Y198994D01*
X222372Y198847D01*
X222994Y198798D01*
Y190386D01*
X222386Y190759D01*
X221599Y191085D01*
X220770Y191284D01*
X219921Y191334D01*
X214948Y191311D01*
X214963Y191372D01*
X215000Y192000D01*
X214963Y192628D01*
X214816Y193240D01*
X214575Y193822D01*
X214246Y194358D01*
X213837Y194837D01*
X213358Y195246D01*
X212874Y195543D01*
X213358Y195840D01*
X213837Y196249D01*
X214246Y196728D01*
X214575Y197264D01*
X214816Y197846D01*
X214963Y198458D01*
X215000Y199086D01*
X214963Y199714D01*
X214816Y200326D01*
X214575Y200908D01*
X214246Y201444D01*
X213837Y201923D01*
X213358Y202332D01*
X212822Y202661D01*
X212240Y202902D01*
X211628Y203049D01*
X211000Y203098D01*
X210372Y203049D01*
X209760Y202902D01*
X209178Y202661D01*
X208642Y202332D01*
X208163Y201923D01*
X207754Y201444D01*
X207425Y200908D01*
X207184Y200326D01*
X207037Y199714D01*
X206988Y199086D01*
X207037Y198458D01*
X207184Y197846D01*
X207425Y197264D01*
X207754Y196728D01*
X208163Y196249D01*
X208642Y195840D01*
X209126Y195543D01*
X208642Y195246D01*
X208163Y194837D01*
X207754Y194358D01*
X207425Y193822D01*
X207184Y193240D01*
X207037Y192628D01*
X206988Y192000D01*
X207037Y191372D01*
X207184Y190760D01*
X207271Y190549D01*
X206888Y190314D01*
X206240Y189760D01*
X205686Y189112D01*
X205241Y188386D01*
X204915Y187599D01*
X204716Y186770D01*
X204666Y185921D01*
X204716Y175230D01*
X204915Y174401D01*
X205241Y173614D01*
X205686Y172888D01*
X206240Y172240D01*
X206888Y171686D01*
X207614Y171241D01*
X208401Y170915D01*
X209230Y170716D01*
X210079Y170666D01*
X220770Y170716D01*
X221599Y170915D01*
X222386Y171241D01*
X222994Y171614D01*
Y148000D01*
X209500D01*
X209486Y154235D01*
X209431Y154465D01*
X209341Y154683D01*
X209217Y154884D01*
X209064Y155064D01*
X208884Y155217D01*
X208683Y155341D01*
X208465Y155431D01*
X208235Y155486D01*
X208000Y155500D01*
X201765Y155486D01*
X201535Y155431D01*
X201317Y155341D01*
X201116Y155217D01*
X200936Y155064D01*
X200783Y154884D01*
X200659Y154683D01*
X200569Y154465D01*
X200514Y154235D01*
X200500Y154000D01*
X200513Y148000D01*
X198994D01*
Y193007D01*
X203735Y193014D01*
X203965Y193069D01*
X204183Y193159D01*
X204384Y193283D01*
X204564Y193436D01*
X204717Y193616D01*
X204841Y193817D01*
X204931Y194035D01*
X204986Y194265D01*
X205000Y194500D01*
X204986Y203735D01*
X204931Y203965D01*
X204841Y204183D01*
X204717Y204384D01*
X204564Y204564D01*
X204384Y204717D01*
X204183Y204841D01*
X203965Y204931D01*
X203735Y204986D01*
X203500Y205000D01*
X203474Y205000D01*
X203869Y205462D01*
X204363Y206268D01*
X204724Y207140D01*
X204944Y208058D01*
X205000Y209000D01*
X204944Y209942D01*
X204724Y210860D01*
X204363Y211732D01*
X203869Y212538D01*
X203256Y213256D01*
X202538Y213869D01*
X202324Y214000D01*
X202538Y214131D01*
X203256Y214744D01*
X203869Y215462D01*
X204363Y216268D01*
X204724Y217140D01*
X204944Y218058D01*
X205000Y219000D01*
X204944Y219942D01*
X204724Y220860D01*
X204363Y221732D01*
X203869Y222538D01*
X203256Y223256D01*
X202538Y223869D01*
X201732Y224363D01*
X200860Y224724D01*
X199942Y224944D01*
X199000Y225019D01*
X198994Y225018D01*
Y226988D01*
X199000Y226988D01*
X199628Y227037D01*
X200240Y227184D01*
X200822Y227425D01*
X201358Y227754D01*
X201837Y228163D01*
X202246Y228642D01*
X202575Y229178D01*
X202816Y229760D01*
X202963Y230372D01*
X203000Y231000D01*
X202963Y231628D01*
X202816Y232240D01*
X202575Y232822D01*
X202246Y233358D01*
X201837Y233837D01*
X201358Y234246D01*
X200822Y234575D01*
X200240Y234816D01*
X199628Y234963D01*
X199000Y235012D01*
X198994Y235012D01*
Y246000D01*
G37*
G36*
X169000Y227687D02*X175140Y227716D01*
X175969Y227915D01*
X176756Y228241D01*
X177482Y228686D01*
X178130Y229240D01*
X178684Y229888D01*
X179129Y230614D01*
X179455Y231401D01*
X179654Y232230D01*
X179704Y233079D01*
X179654Y243770D01*
X179455Y244599D01*
X179129Y245386D01*
X178753Y246000D01*
X198994D01*
Y235012D01*
X198372Y234963D01*
X197760Y234816D01*
X197178Y234575D01*
X196642Y234246D01*
X196163Y233837D01*
X195754Y233358D01*
X195425Y232822D01*
X195184Y232240D01*
X195037Y231628D01*
X194988Y231000D01*
X195037Y230372D01*
X195184Y229760D01*
X195425Y229178D01*
X195754Y228642D01*
X196163Y228163D01*
X196642Y227754D01*
X197178Y227425D01*
X197760Y227184D01*
X198372Y227037D01*
X198994Y226988D01*
Y225018D01*
X198058Y224944D01*
X197140Y224724D01*
X196268Y224363D01*
X195462Y223869D01*
X194744Y223256D01*
X194131Y222538D01*
X193637Y221732D01*
X193276Y220860D01*
X193056Y219942D01*
X192981Y219000D01*
X193056Y218058D01*
X193276Y217140D01*
X193637Y216268D01*
X194131Y215462D01*
X194744Y214744D01*
X195462Y214131D01*
X195676Y214000D01*
X195462Y213869D01*
X194744Y213256D01*
X194131Y212538D01*
X193637Y211732D01*
X193276Y210860D01*
X193056Y209942D01*
X192981Y209000D01*
X193056Y208058D01*
X193276Y207140D01*
X193637Y206268D01*
X194131Y205462D01*
X194537Y204987D01*
X194265Y204986D01*
X194035Y204931D01*
X193817Y204841D01*
X193616Y204717D01*
X193436Y204564D01*
X193283Y204384D01*
X193159Y204183D01*
X193069Y203965D01*
X193014Y203735D01*
X193000Y203500D01*
X193014Y194265D01*
X193069Y194035D01*
X193159Y193817D01*
X193283Y193616D01*
X193436Y193436D01*
X193616Y193283D01*
X193817Y193159D01*
X194035Y193069D01*
X194265Y193014D01*
X194500Y193000D01*
X198994Y193007D01*
Y148000D01*
X169000D01*
Y157507D01*
X172235Y157514D01*
X172465Y157569D01*
X172683Y157659D01*
X172884Y157783D01*
X173064Y157936D01*
X173217Y158116D01*
X173341Y158317D01*
X173431Y158535D01*
X173486Y158765D01*
X173500Y159000D01*
X173486Y165235D01*
X173431Y165465D01*
X173341Y165683D01*
X173217Y165884D01*
X173064Y166064D01*
X172884Y166217D01*
X172683Y166341D01*
X172465Y166431D01*
X172235Y166486D01*
X172000Y166500D01*
X169000Y166493D01*
Y173073D01*
X169537Y172614D01*
X170924Y171764D01*
X172427Y171141D01*
X174008Y170762D01*
X175630Y170634D01*
X177252Y170762D01*
X178833Y171141D01*
X180336Y171764D01*
X181723Y172614D01*
X182960Y173670D01*
X184016Y174907D01*
X184866Y176294D01*
X185489Y177797D01*
X185868Y179378D01*
X185964Y181000D01*
X185868Y182622D01*
X185489Y184203D01*
X184866Y185706D01*
X184016Y187093D01*
X182960Y188330D01*
X181723Y189386D01*
X180336Y190236D01*
X178833Y190859D01*
X177252Y191238D01*
X175630Y191366D01*
X174008Y191238D01*
X172427Y190859D01*
X170924Y190236D01*
X169537Y189386D01*
X169000Y188927D01*
Y227687D01*
G37*
G36*
X131986Y227849D02*X133203Y228141D01*
X134706Y228764D01*
X136093Y229614D01*
X137330Y230670D01*
X138386Y231907D01*
X139236Y233294D01*
X139859Y234797D01*
X140238Y236378D01*
X140334Y238000D01*
X140238Y239622D01*
X139859Y241203D01*
X139236Y242706D01*
X138386Y244093D01*
X137330Y245330D01*
X136545Y246000D01*
X159987D01*
X159611Y245386D01*
X159285Y244599D01*
X159086Y243770D01*
X159036Y242921D01*
X159086Y232230D01*
X159285Y231401D01*
X159611Y230614D01*
X160056Y229888D01*
X160610Y229240D01*
X161258Y228686D01*
X161984Y228241D01*
X162771Y227915D01*
X163600Y227716D01*
X164449Y227666D01*
X169000Y227687D01*
Y188927D01*
X168300Y188330D01*
X167244Y187093D01*
X166394Y185706D01*
X166277Y185423D01*
X165923Y185837D01*
X165444Y186246D01*
X164908Y186575D01*
X164326Y186816D01*
X163714Y186963D01*
X163086Y187012D01*
X162458Y186963D01*
X161846Y186816D01*
X161264Y186575D01*
X160728Y186246D01*
X160249Y185837D01*
X159840Y185358D01*
X159511Y184822D01*
X159270Y184240D01*
X159123Y183628D01*
X159074Y183000D01*
X159123Y182372D01*
X159270Y181760D01*
X159511Y181178D01*
X159840Y180642D01*
X160249Y180163D01*
X160728Y179754D01*
X161264Y179425D01*
X161846Y179184D01*
X162458Y179037D01*
X163086Y178988D01*
X163714Y179037D01*
X164326Y179184D01*
X164908Y179425D01*
X165366Y179706D01*
X165392Y179378D01*
X165771Y177797D01*
X166394Y176294D01*
X167244Y174907D01*
X168300Y173670D01*
X169000Y173073D01*
Y166493D01*
X165765Y166486D01*
X165535Y166431D01*
X165317Y166341D01*
X165116Y166217D01*
X164936Y166064D01*
X164783Y165884D01*
X164659Y165683D01*
X164569Y165465D01*
X164514Y165235D01*
X164500Y165000D01*
X164514Y158765D01*
X164569Y158535D01*
X164659Y158317D01*
X164783Y158116D01*
X164936Y157936D01*
X165116Y157783D01*
X165317Y157659D01*
X165535Y157569D01*
X165765Y157514D01*
X166000Y157500D01*
X169000Y157507D01*
Y148000D01*
X131986D01*
Y199973D01*
X132000Y199972D01*
X133412Y200083D01*
X134790Y200414D01*
X136099Y200956D01*
X137306Y201696D01*
X138384Y202616D01*
X139304Y203694D01*
X140044Y204901D01*
X140586Y206210D01*
X140917Y207588D01*
X141000Y209000D01*
X140917Y210412D01*
X140586Y211790D01*
X140044Y213099D01*
X139304Y214306D01*
X138384Y215384D01*
X137306Y216304D01*
X136099Y217044D01*
X134790Y217586D01*
X133412Y217917D01*
X132000Y218028D01*
X131986Y218027D01*
Y227849D01*
G37*
G36*
X121994Y231462D02*X122670Y230670D01*
X123907Y229614D01*
X125294Y228764D01*
X126797Y228141D01*
X128378Y227762D01*
X130000Y227634D01*
X131622Y227762D01*
X131986Y227849D01*
Y218027D01*
X130588Y217917D01*
X129210Y217586D01*
X127901Y217044D01*
X126694Y216304D01*
X125616Y215384D01*
X124696Y214306D01*
X123956Y213099D01*
X123414Y211790D01*
X123083Y210412D01*
X122972Y209000D01*
X123083Y207588D01*
X123414Y206210D01*
X123956Y204901D01*
X124696Y203694D01*
X125616Y202616D01*
X126694Y201696D01*
X127901Y200956D01*
X129210Y200414D01*
X130588Y200083D01*
X131986Y199973D01*
Y148000D01*
X121994D01*
Y169988D01*
X122000Y169988D01*
X122628Y170037D01*
X123240Y170184D01*
X123822Y170425D01*
X124358Y170754D01*
X124837Y171163D01*
X125246Y171642D01*
X125575Y172178D01*
X125816Y172760D01*
X125963Y173372D01*
X126000Y174000D01*
X125963Y174628D01*
X125816Y175240D01*
X125575Y175822D01*
X125246Y176358D01*
X124837Y176837D01*
X124358Y177246D01*
X123822Y177575D01*
X123240Y177816D01*
X122628Y177963D01*
X122000Y178012D01*
X121994Y178012D01*
Y231462D01*
G37*
G36*
Y246000D02*X123455D01*
X122670Y245330D01*
X121994Y244538D01*
Y246000D01*
G37*
G36*
X117000D02*X121994D01*
Y244538D01*
X121614Y244093D01*
X120764Y242706D01*
X120141Y241203D01*
X119762Y239622D01*
X119634Y238000D01*
X119762Y236378D01*
X120141Y234797D01*
X120764Y233294D01*
X121614Y231907D01*
X121994Y231462D01*
Y178012D01*
X121372Y177963D01*
X120760Y177816D01*
X120178Y177575D01*
X119642Y177246D01*
X119163Y176837D01*
X118754Y176358D01*
X118425Y175822D01*
X118184Y175240D01*
X118037Y174628D01*
X117988Y174000D01*
X118037Y173372D01*
X118184Y172760D01*
X118425Y172178D01*
X118754Y171642D01*
X119163Y171163D01*
X119642Y170754D01*
X120178Y170425D01*
X120760Y170184D01*
X121372Y170037D01*
X121994Y169988D01*
Y148000D01*
X117000D01*
Y246000D01*
G37*
G36*
X252000Y166000D02*X226000D01*
Y195000D01*
X252000D01*
Y194119D01*
X251884Y194217D01*
X251683Y194341D01*
X251465Y194431D01*
X251235Y194486D01*
X251000Y194500D01*
X244765Y194486D01*
X244535Y194431D01*
X244317Y194341D01*
X244116Y194217D01*
X243936Y194064D01*
X243783Y193884D01*
X243659Y193683D01*
X243569Y193465D01*
X243514Y193235D01*
X243500Y193000D01*
X243514Y186765D01*
X243569Y186535D01*
X243659Y186317D01*
X243783Y186116D01*
X243936Y185936D01*
X244116Y185783D01*
X244317Y185659D01*
X244535Y185569D01*
X244765Y185514D01*
X245000Y185500D01*
X251235Y185514D01*
X251465Y185569D01*
X251683Y185659D01*
X251884Y185783D01*
X252000Y185881D01*
Y166000D01*
G37*
G36*
X153000Y149000D02*X200511D01*
X200514Y147765D01*
X200569Y147535D01*
X200659Y147317D01*
X200783Y147116D01*
X200936Y146936D01*
X201116Y146783D01*
X201317Y146659D01*
X201535Y146569D01*
X201765Y146514D01*
X202000Y146500D01*
X208235Y146514D01*
X208465Y146569D01*
X208683Y146659D01*
X208884Y146783D01*
X209064Y146936D01*
X209217Y147116D01*
X209341Y147317D01*
X209431Y147535D01*
X209486Y147765D01*
X209500Y148000D01*
X209498Y149000D01*
X228000D01*
Y137000D01*
X153000D01*
Y149000D01*
G37*
G36*
X98997Y126000D02*X101110D01*
X100760Y125916D01*
X100178Y125675D01*
X99642Y125346D01*
X99163Y124937D01*
X98997Y124743D01*
Y126000D01*
G37*
G36*
X111000Y97000D02*X98997D01*
Y101044D01*
X99000Y101044D01*
X99306Y101068D01*
X99604Y101140D01*
X99888Y101257D01*
X100150Y101418D01*
X100383Y101617D01*
X100582Y101850D01*
X100743Y102112D01*
X100860Y102396D01*
X100932Y102694D01*
X100950Y103000D01*
X100932Y103306D01*
X100860Y103604D01*
X100743Y103888D01*
X100582Y104150D01*
X100383Y104383D01*
X100150Y104582D01*
X99888Y104743D01*
X99604Y104860D01*
X99306Y104932D01*
X99000Y104956D01*
X98997Y104956D01*
Y119457D01*
X99163Y119263D01*
X99642Y118854D01*
X100178Y118525D01*
X100760Y118284D01*
X101372Y118137D01*
X102000Y118088D01*
X102628Y118137D01*
X103240Y118284D01*
X103822Y118525D01*
X104358Y118854D01*
X104837Y119263D01*
X105246Y119742D01*
X105543Y120226D01*
X105840Y119742D01*
X106249Y119263D01*
X106728Y118854D01*
X107264Y118525D01*
X107846Y118284D01*
X108458Y118137D01*
X109086Y118088D01*
X109714Y118137D01*
X110326Y118284D01*
X110908Y118525D01*
X111000Y118582D01*
Y97000D01*
G37*
G36*
X98997D02*X95456D01*
X95647Y97163D01*
X96056Y97642D01*
X96385Y98178D01*
X96626Y98760D01*
X96773Y99372D01*
X96810Y100000D01*
X96773Y100628D01*
X96626Y101240D01*
X96385Y101822D01*
X96056Y102358D01*
X95647Y102837D01*
X95168Y103246D01*
X94632Y103575D01*
X94050Y103816D01*
X93438Y103963D01*
X92810Y104012D01*
X92804Y104012D01*
Y113988D01*
X92810Y113988D01*
X93438Y114037D01*
X94050Y114184D01*
X94632Y114425D01*
X95168Y114754D01*
X95647Y115163D01*
X96056Y115642D01*
X96385Y116178D01*
X96626Y116760D01*
X96773Y117372D01*
X96810Y118000D01*
X96773Y118628D01*
X96626Y119240D01*
X96385Y119822D01*
X96056Y120358D01*
X95647Y120837D01*
X95168Y121246D01*
X94632Y121575D01*
X94050Y121816D01*
X93438Y121963D01*
X92810Y122012D01*
X92804Y122012D01*
Y126000D01*
X98997D01*
Y124743D01*
X98754Y124458D01*
X98425Y123922D01*
X98184Y123340D01*
X98037Y122728D01*
X97988Y122100D01*
X98037Y121472D01*
X98184Y120860D01*
X98425Y120278D01*
X98754Y119742D01*
X98997Y119457D01*
Y104956D01*
X98694Y104932D01*
X98396Y104860D01*
X98112Y104743D01*
X97850Y104582D01*
X97617Y104383D01*
X97418Y104150D01*
X97257Y103888D01*
X97140Y103604D01*
X97068Y103306D01*
X97044Y103000D01*
X97068Y102694D01*
X97140Y102396D01*
X97257Y102112D01*
X97418Y101850D01*
X97617Y101617D01*
X97850Y101418D01*
X98112Y101257D01*
X98396Y101140D01*
X98694Y101068D01*
X98997Y101044D01*
Y97000D01*
G37*
G36*
X92804Y104012D02*X92182Y103963D01*
X91570Y103816D01*
X90988Y103575D01*
X90452Y103246D01*
X89973Y102837D01*
X89564Y102358D01*
X89235Y101822D01*
X88994Y101240D01*
X88847Y100628D01*
X88798Y100000D01*
X88847Y99372D01*
X88994Y98760D01*
X89235Y98178D01*
X89564Y97642D01*
X89973Y97163D01*
X90164Y97000D01*
X69832D01*
X69628Y97049D01*
X69000Y97098D01*
X68372Y97049D01*
X68168Y97000D01*
X65646D01*
X65837Y97163D01*
X66246Y97642D01*
X66575Y98178D01*
X66816Y98760D01*
X66963Y99372D01*
X67000Y100000D01*
X66963Y100628D01*
X66816Y101240D01*
X66575Y101822D01*
X66246Y102358D01*
X65837Y102837D01*
X65358Y103246D01*
X64822Y103575D01*
X64240Y103816D01*
X63628Y103963D01*
X63000Y104012D01*
X62994Y104012D01*
Y113988D01*
X63000Y113988D01*
X63628Y114037D01*
X64240Y114184D01*
X64822Y114425D01*
X65358Y114754D01*
X65837Y115163D01*
X66246Y115642D01*
X66575Y116178D01*
X66816Y116760D01*
X66963Y117372D01*
X67000Y118000D01*
X66963Y118628D01*
X66816Y119240D01*
X66575Y119822D01*
X66246Y120358D01*
X65837Y120837D01*
X65358Y121246D01*
X64822Y121575D01*
X64240Y121816D01*
X63628Y121963D01*
X63000Y122012D01*
X62994Y122012D01*
Y126000D01*
X92804D01*
Y122012D01*
X92182Y121963D01*
X91570Y121816D01*
X90988Y121575D01*
X90452Y121246D01*
X89973Y120837D01*
X89564Y120358D01*
X89235Y119822D01*
X88994Y119240D01*
X88847Y118628D01*
X88798Y118000D01*
X88847Y117372D01*
X88994Y116760D01*
X89235Y116178D01*
X89564Y115642D01*
X89973Y115163D01*
X90452Y114754D01*
X90988Y114425D01*
X91570Y114184D01*
X92182Y114037D01*
X92804Y113988D01*
Y104012D01*
G37*
G36*
X62994D02*X62372Y103963D01*
X61760Y103816D01*
X61178Y103575D01*
X60642Y103246D01*
X60163Y102837D01*
X59754Y102358D01*
X59425Y101822D01*
X59184Y101240D01*
X59037Y100628D01*
X58988Y100000D01*
X59037Y99372D01*
X59184Y98760D01*
X59425Y98178D01*
X59754Y97642D01*
X60163Y97163D01*
X60354Y97000D01*
X58674D01*
X58743Y97112D01*
X58860Y97396D01*
X58932Y97694D01*
X58950Y98000D01*
X58932Y98306D01*
X58860Y98604D01*
X58743Y98888D01*
X58582Y99150D01*
X58383Y99383D01*
X58150Y99582D01*
X57888Y99743D01*
X57604Y99860D01*
X57306Y99932D01*
X57000Y99956D01*
X56694Y99932D01*
X56396Y99860D01*
X56112Y99743D01*
X55850Y99582D01*
X55617Y99383D01*
X55418Y99150D01*
X55257Y98888D01*
X55140Y98604D01*
X55068Y98306D01*
X55044Y98000D01*
X55068Y97694D01*
X55140Y97396D01*
X55257Y97112D01*
X55326Y97000D01*
X45000D01*
Y118634D01*
X45178Y118525D01*
X45760Y118284D01*
X46372Y118137D01*
X47000Y118088D01*
X47628Y118137D01*
X48240Y118284D01*
X48822Y118525D01*
X49358Y118854D01*
X49837Y119263D01*
X50246Y119742D01*
X50543Y120226D01*
X50840Y119742D01*
X51249Y119263D01*
X51728Y118854D01*
X52264Y118525D01*
X52846Y118284D01*
X53458Y118137D01*
X54086Y118088D01*
X54714Y118137D01*
X55326Y118284D01*
X55908Y118525D01*
X56444Y118854D01*
X56923Y119263D01*
X57332Y119742D01*
X57661Y120278D01*
X57902Y120860D01*
X58049Y121472D01*
X58086Y122100D01*
X58049Y122728D01*
X57902Y123340D01*
X57661Y123922D01*
X57332Y124458D01*
X56923Y124937D01*
X56444Y125346D01*
X55908Y125675D01*
X55326Y125916D01*
X54976Y126000D01*
X62994D01*
Y122012D01*
X62372Y121963D01*
X61760Y121816D01*
X61178Y121575D01*
X60642Y121246D01*
X60163Y120837D01*
X59754Y120358D01*
X59425Y119822D01*
X59184Y119240D01*
X59037Y118628D01*
X58988Y118000D01*
X59037Y117372D01*
X59184Y116760D01*
X59425Y116178D01*
X59754Y115642D01*
X60163Y115163D01*
X60642Y114754D01*
X61178Y114425D01*
X61760Y114184D01*
X62372Y114037D01*
X62994Y113988D01*
Y104012D01*
G37*
G36*
X93000Y125000D02*X89996D01*
Y134493D01*
X90000Y134492D01*
X90392Y134523D01*
X90775Y134615D01*
X91138Y134766D01*
X91474Y134971D01*
X91773Y135227D01*
X92029Y135526D01*
X92234Y135862D01*
X92385Y136225D01*
X92477Y136608D01*
X92500Y137000D01*
X92477Y137392D01*
X92385Y137775D01*
X92234Y138138D01*
X92029Y138474D01*
X91773Y138773D01*
X91474Y139029D01*
X91138Y139234D01*
X90775Y139385D01*
X90392Y139477D01*
X90000Y139508D01*
X89996Y139507D01*
Y146000D01*
X93000D01*
Y125000D01*
G37*
G36*
X89996D02*X63000D01*
Y146000D01*
X89996D01*
Y139507D01*
X89608Y139477D01*
X89225Y139385D01*
X88862Y139234D01*
X88526Y139029D01*
X88227Y138773D01*
X87971Y138474D01*
X87766Y138138D01*
X87615Y137775D01*
X87523Y137392D01*
X87492Y137000D01*
X87523Y136608D01*
X87615Y136225D01*
X87766Y135862D01*
X87971Y135526D01*
X88227Y135227D01*
X88526Y134971D01*
X88862Y134766D01*
X89225Y134615D01*
X89608Y134523D01*
X89996Y134493D01*
Y125000D01*
G37*
G36*
X92000Y127000D02*Y135492D01*
X92029Y135526D01*
X92234Y135862D01*
X92385Y136225D01*
X92477Y136608D01*
X92500Y137000D01*
X92477Y137392D01*
X92385Y137775D01*
X92234Y138138D01*
X92029Y138474D01*
X92000Y138508D01*
Y140000D01*
X106000D01*
Y134518D01*
X105908Y134575D01*
X105326Y134816D01*
X104714Y134963D01*
X104086Y135012D01*
X103458Y134963D01*
X102846Y134816D01*
X102264Y134575D01*
X101728Y134246D01*
X101249Y133837D01*
X100840Y133358D01*
X100511Y132822D01*
X100270Y132240D01*
X100123Y131628D01*
X100074Y131000D01*
X100123Y130372D01*
X100270Y129760D01*
X100511Y129178D01*
X100840Y128642D01*
X101249Y128163D01*
X101728Y127754D01*
X102264Y127425D01*
X102846Y127184D01*
X103458Y127037D01*
X103929Y127000D01*
X92000D01*
G37*
G36*
X93000Y151000D02*X63000D01*
Y177000D01*
X93000D01*
Y151000D01*
G37*
G36*
X95000Y176000D02*X61000D01*
Y208000D01*
X95000D01*
Y176000D01*
G37*
G54D65*X97000Y131000D02*X91000D01*
G54D64*G36*
X194500Y203500D02*Y194500D01*
X203500D01*
Y203500D01*
X194500D01*
G37*
G54D66*X199000Y209000D03*
Y219000D03*
G54D64*G36*
X210079Y185921D02*Y176079D01*
X219921D01*
Y185921D01*
X210079D01*
G37*
G36*
X166000Y165000D02*Y159000D01*
X172000D01*
Y165000D01*
X166000D01*
G37*
G54D67*X169000Y142000D03*
G54D68*X132000Y209000D03*
G54D69*X175630Y181000D03*
G54D64*G36*
X202000Y154000D02*Y148000D01*
X208000D01*
Y154000D01*
X202000D01*
G37*
G54D67*X225000Y151000D03*
G54D64*G36*
X245000Y193000D02*Y187000D01*
X251000D01*
Y193000D01*
X245000D01*
G37*
G54D67*X248000Y170000D03*
G54D64*G36*
X164449Y242921D02*Y233079D01*
X174291D01*
Y242921D01*
X164449D01*
G37*
G54D69*X130000Y238000D03*
G54D67*X92810Y100000D03*
Y118000D03*
X97000Y131000D03*
G54D70*X90000D03*
Y137000D03*
G54D67*X102000Y122100D03*
X106086Y161000D03*
X122000Y174000D03*
X104086Y131000D03*
X142000Y154000D03*
X109086Y122100D03*
G54D70*X140000Y121000D03*
G54D71*X99000Y103000D03*
G54D70*X120000Y111000D03*
X140000Y101000D03*
G54D67*X63000Y118000D03*
X72000Y140000D03*
X69000Y93086D03*
G54D70*X16000Y101000D03*
Y121000D03*
X36000Y111000D03*
G54D67*X63000Y100000D03*
X47000Y122100D03*
X54086D03*
G54D71*X57000Y98000D03*
G54D67*X77000Y70000D03*
G54D72*Y82000D03*
G54D67*X69000Y86000D03*
X68000Y203000D03*
G54D70*X67000Y70000D03*
X87000D03*
G54D67*X156000Y183000D03*
X211000Y199086D03*
Y192000D03*
X163086Y183000D03*
X223000Y191000D03*
X199000Y231000D03*
X206086D03*
X223000Y202810D03*
Y211000D03*
Y222810D03*
G54D73*G54D74*G54D73*G54D74*G54D73*G54D74*G54D73*G54D74*G54D73*G54D75*G54D73*G54D74*G54D73*G54D67*G54D76*G54D70*G54D77*G54D76*G54D70*G54D76*M02*
