G04 start of page 10 for group -4079 idx -4079 *
G04 Title: (unknown), topsilk *
G04 Creator: pcb 20110918 *
G04 CreationDate: Wed 16 Apr 2014 03:02:33 AM GMT UTC *
G04 For: commonadmin *
G04 Format: Gerber/RS-274X *
G04 PCB-Dimensions: 300000 250000 *
G04 PCB-Coordinate-Origin: lower left *
%MOIN*%
%FSLAX25Y25*%
%LNTOPSILK*%
%ADD107C,0.0040*%
%ADD106C,0.0200*%
%ADD105C,0.0300*%
%ADD104C,0.0079*%
%ADD103C,0.0100*%
%ADD102C,0.0080*%
G54D102*X66543Y121740D02*X71267D01*
X66543Y114260D02*X71267D01*
X84543Y121740D02*X89267D01*
X84543Y114260D02*X89267D01*
X75245Y128936D02*Y128150D01*
X80755Y128936D02*Y128150D01*
X66543Y112740D02*X71267D01*
X66543Y105260D02*X71267D01*
X66543Y103740D02*X71267D01*
X66543Y96260D02*X71267D01*
X66245Y89936D02*Y89150D01*
X71755Y89936D02*Y89150D01*
X82245Y89936D02*Y89150D01*
X87755Y89936D02*Y89150D01*
X50150Y124855D02*X50936D01*
X50150Y119345D02*X50936D01*
X50150Y110855D02*X50936D01*
X50150Y105345D02*X50936D01*
G54D103*X44500Y104500D02*X56400D01*
X44500D02*Y96500D01*
X56400D01*
Y104500D02*Y96500D01*
X62750Y44000D02*X91250D01*
Y76000D02*Y44000D01*
X62750Y76000D02*X91250D01*
X62750Y57500D02*Y44000D01*
Y76000D02*Y62500D01*
Y57500D02*G75*G03X62750Y62500I0J2500D01*G01*
X93000Y42250D02*Y13750D01*
X61000Y42250D02*X93000D01*
X61000D02*Y13750D01*
X79500D02*X93000D01*
X61000D02*X74500D01*
X79500D02*G75*G03X74500Y13750I-2500J0D01*G01*
G54D102*X75543Y143740D02*X80267D01*
X75543Y136260D02*X80267D01*
G54D103*X63750Y177000D02*X92250D01*
X63750D02*Y145000D01*
X92250D01*
Y177000D02*Y163500D01*
Y158500D02*Y145000D01*
Y163500D02*G75*G03X92250Y158500I0J-2500D01*G01*
X62000Y207250D02*Y178750D01*
X94000D01*
Y207250D01*
X62000D02*X75500D01*
X94000D02*X80500D01*
X75500D02*G75*G03X80500Y207250I2500J0D01*G01*
G54D104*X96157Y171720D02*Y165126D01*
X115843D01*
Y171720D02*Y165126D01*
X96157Y201346D02*Y194752D01*
Y201346D02*X115843D01*
Y194752D01*
X97535Y193472D02*Y173000D01*
X114465Y193472D02*Y173000D01*
X109281Y201346D02*G75*G03X102719Y201346I-3281J0D01*G01*
G54D102*X84543Y103740D02*X89267D01*
X84543Y96260D02*X89267D01*
X84543Y105260D02*X89267D01*
X84543Y112740D02*X89267D01*
G54D103*X99600Y96600D02*X111500D01*
Y104600D02*Y96600D01*
X99600Y104600D02*X111500D01*
X99600D02*Y96600D01*
G54D102*X105150Y110855D02*X105936D01*
X105150Y105345D02*X105936D01*
X105150Y124855D02*X105936D01*
X105150Y119345D02*X105936D01*
G54D103*X147750Y127000D02*X176250D01*
X147750D02*Y95000D01*
X176250D01*
Y127000D02*Y113500D01*
Y108500D02*Y95000D01*
Y113500D02*G75*G03X176250Y108500I0J-2500D01*G01*
X10000Y125250D02*Y96750D01*
X42000D01*
Y125250D01*
X10000D02*X23500D01*
X42000D02*X28500D01*
X23500D02*G75*G03X28500Y125250I2500J0D01*G01*
X146000D02*Y96750D01*
X114000Y125250D02*X146000D01*
X114000D02*Y96750D01*
X132500D02*X146000D01*
X114000D02*X127500D01*
X132500D02*G75*G03X127500Y96750I-2500J0D01*G01*
G54D102*X100150Y133755D02*X100936D01*
X100150Y128245D02*X100936D01*
X102150Y163755D02*X102936D01*
X102150Y158245D02*X102936D01*
G54D103*X117750Y180000D02*X146250D01*
X117750D02*Y148000D01*
X146250D01*
Y180000D02*Y166500D01*
Y161500D02*Y148000D01*
Y166500D02*G75*G03X146250Y161500I0J-2500D01*G01*
X169000Y178000D02*Y174000D01*
X167000Y176000D02*X171000D01*
X169000Y130000D02*Y126000D01*
Y172000D02*G75*G03X169000Y172000I0J-20000D01*G01*
G54D102*X159150Y185755D02*X159936D01*
X159150Y180245D02*X159936D01*
G54D105*X181000Y199000D02*X199000D01*
X181000Y209000D02*X199000D01*
X181000Y219000D02*X199000D01*
G54D106*X181000Y229000D02*Y189000D01*
X143500Y229000D02*X181000D01*
X143500D02*Y189000D01*
X181000D01*
X143500Y229000D02*Y189000D01*
X131000Y229000D02*X143500D01*
X131000D02*Y227500D01*
X124000D02*X131000D01*
X124000Y229000D02*Y227500D01*
X120000Y229000D02*X124000D01*
X120000D02*Y189000D01*
X124000D01*
Y190500D02*Y189000D01*
Y190500D02*X131000D01*
Y189000D01*
X143500D01*
G54D103*X175630Y181000D02*X188752D01*
Y187559D02*Y174441D01*
X201874Y181000D01*
X188752Y187559D02*X201874Y181000D01*
Y187559D02*Y174441D01*
Y181000D02*X214996D01*
G54D102*X213755Y195936D02*Y195150D01*
X208245Y195936D02*Y195150D01*
X202150Y228245D02*X202936D01*
X202150Y233755D02*X202936D01*
G54D103*X189000Y151000D02*X193000D01*
X191000Y153000D02*Y149000D01*
X237000Y151000D02*X241000D01*
X195000D02*G75*G03X195000Y151000I20000J0D01*G01*
G54D102*X219260Y199267D02*Y194543D01*
X226740Y199267D02*Y194543D01*
G54D103*X248000Y206000D02*Y202000D01*
X246000Y204000D02*X250000D01*
X248000Y158000D02*Y154000D01*
Y200000D02*G75*G03X248000Y200000I0J-20000D01*G01*
G54D102*X219260Y219267D02*Y214543D01*
X226740Y219267D02*Y214543D01*
G54D103*X130000Y238000D02*X143122D01*
Y244559D02*Y231441D01*
X156244Y238000D01*
X143122Y244559D02*X156244Y238000D01*
Y244559D02*Y231441D01*
Y238000D02*X169366D01*
G54D107*X76000Y198000D02*Y194500D01*
X76500Y194000D01*
X77500D01*
X78000Y194500D01*
Y198000D02*Y194500D01*
X79200D02*X79700Y194000D01*
X79200Y195300D02*Y194500D01*
Y195300D02*X79900Y196000D01*
X80500D01*
X81200Y195300D01*
Y194500D01*
X80700Y194000D02*X81200Y194500D01*
X79700Y194000D02*X80700D01*
X79200Y196700D02*X79900Y196000D01*
X79200Y197500D02*Y196700D01*
Y197500D02*X79700Y198000D01*
X80700D01*
X81200Y197500D01*
Y196700D01*
X80500Y196000D02*X81200Y196700D01*
X101000Y182536D02*Y181236D01*
X101700Y183236D02*X101000Y182536D01*
X101700Y183236D02*X104300D01*
X105000Y182536D01*
Y181236D01*
X104200Y180036D02*X105000Y179236D01*
X101000D02*X105000D01*
X101000Y180036D02*Y178536D01*
X119000Y193500D02*Y190000D01*
Y193500D02*X118500Y194000D01*
X117500D02*X118500D01*
X117500D02*X117000Y193500D01*
Y190000D01*
X115800Y190800D02*X115000Y190000D01*
Y194000D02*Y190000D01*
X114300Y194000D02*X115800D01*
X113100Y190800D02*X112300Y190000D01*
Y194000D02*Y190000D01*
X111600Y194000D02*X113100D01*
X213500Y187000D02*Y183000D01*
X212200D02*X211500Y183700D01*
Y186300D02*Y183700D01*
X212200Y187000D02*X211500Y186300D01*
X212200Y187000D02*X214000D01*
X212200Y183000D02*X214000D01*
X210300Y183500D02*X209800Y183000D01*
X208300D02*X209800D01*
X208300D02*X207800Y183500D01*
Y184500D02*Y183500D01*
X210300Y187000D02*X207800Y184500D01*
Y187000D02*X210300D01*
X263000Y199300D02*Y198000D01*
X263700Y200000D02*X263000Y199300D01*
X263700Y200000D02*X266300D01*
X267000Y199300D01*
Y198000D01*
X266500Y196800D02*X267000Y196300D01*
Y194800D01*
X266500Y194300D01*
X265500D02*X266500D01*
X263000Y196800D02*X265500Y194300D01*
X263000Y196800D02*Y194300D01*
X266500Y193100D02*X267000Y192600D01*
Y191100D01*
X266500Y190600D01*
X265500D02*X266500D01*
X263000Y193100D02*X265500Y190600D01*
X263000Y193100D02*Y190600D01*
X209150Y197993D02*Y196693D01*
X209850Y198693D02*X209150Y197993D01*
X209850Y198693D02*X212450D01*
X213150Y197993D01*
Y196693D01*
X212650Y195493D02*X213150Y194993D01*
Y193493D01*
X212650Y192993D01*
X211650D02*X212650D01*
X209150Y195493D02*X211650Y192993D01*
X209150Y195493D02*Y192993D01*
X212650Y191793D02*X213150Y191293D01*
Y190293D01*
X212650Y189793D01*
X209150Y190293D02*X209650Y189793D01*
X209150Y191293D02*Y190293D01*
X209650Y191793D02*X209150Y191293D01*
X211350D02*Y190293D01*
X211850Y189793D02*X212650D01*
X209650D02*X210850D01*
X211350Y190293D01*
X211850Y189793D02*X211350Y190293D01*
X167870Y244000D02*Y240000D01*
X166570D02*X165870Y240700D01*
Y243300D02*Y240700D01*
X166570Y244000D02*X165870Y243300D01*
X166570Y244000D02*X168370D01*
X166570Y240000D02*X168370D01*
X164670Y240800D02*X163870Y240000D01*
Y244000D02*Y240000D01*
X163170Y244000D02*X164670D01*
X203693Y232850D02*X204993D01*
X205693Y232150D02*X204993Y232850D01*
X205693Y232150D02*Y229550D01*
X204993Y228850D01*
X203693D02*X204993D01*
X202493Y229350D02*X201993Y228850D01*
X200493D02*X201993D01*
X200493D02*X199993Y229350D01*
Y230350D02*Y229350D01*
X202493Y232850D02*X199993Y230350D01*
Y232850D02*X202493D01*
X198793Y229650D02*X197993Y228850D01*
Y232850D02*Y228850D01*
X197293Y232850D02*X198793D01*
X220850Y195755D02*Y193755D01*
Y195755D02*X221350Y196255D01*
X222350D01*
X222850Y195755D02*X222350Y196255D01*
X222850Y195755D02*Y194255D01*
X220850D02*X224850D01*
X222850Y195055D02*X224850Y196255D01*
X224350Y197455D02*X224850Y197955D01*
X223550Y197455D02*X224350D01*
X223550D02*X222850Y198155D01*
Y198755D02*Y198155D01*
Y198755D02*X223550Y199455D01*
X224350D01*
X224850Y198955D02*X224350Y199455D01*
X224850Y198955D02*Y197955D01*
X222150Y197455D02*X222850Y198155D01*
X221350Y197455D02*X222150D01*
X221350D02*X220850Y197955D01*
Y198955D02*Y197955D01*
Y198955D02*X221350Y199455D01*
X222150D01*
X222850Y198755D02*X222150Y199455D01*
X220850Y215755D02*Y213755D01*
Y215755D02*X221350Y216255D01*
X222350D01*
X222850Y215755D02*X222350Y216255D01*
X222850Y215755D02*Y214255D01*
X220850D02*X224850D01*
X222850Y215055D02*X224850Y216255D01*
Y217955D02*X222850Y219455D01*
X221350D02*X222850D01*
X220850Y218955D02*X221350Y219455D01*
X220850Y218955D02*Y217955D01*
X221350Y217455D02*X220850Y217955D01*
X221350Y217455D02*X222350D01*
X222850Y217955D01*
Y219455D02*Y217955D01*
X74755Y142150D02*X76755D01*
X77255Y141650D01*
Y140650D01*
X76755Y140150D02*X77255Y140650D01*
X75255Y140150D02*X76755D01*
X75255Y142150D02*Y138150D01*
X76055Y140150D02*X77255Y138150D01*
X78455Y141350D02*X79255Y142150D01*
Y138150D01*
X78455D02*X79955D01*
X79500Y163000D02*X83000D01*
X79500D02*X79000Y162500D01*
Y161500D01*
X79500Y161000D01*
X83000D01*
X79000Y159300D02*X83000Y157300D01*
Y159800D02*Y157300D01*
X65755Y120150D02*X67755D01*
X68255Y119650D01*
Y118650D01*
X67755Y118150D02*X68255Y118650D01*
X66255Y118150D02*X67755D01*
X66255Y120150D02*Y116150D01*
X67055Y118150D02*X68255Y116150D01*
X69455Y117650D02*X71455Y120150D01*
X69455Y117650D02*X71955D01*
X71455Y120150D02*Y116150D01*
X83755Y120150D02*X85755D01*
X86255Y119650D01*
Y118650D01*
X85755Y118150D02*X86255Y118650D01*
X84255Y118150D02*X85755D01*
X84255Y120150D02*Y116150D01*
X85055Y118150D02*X86255Y116150D01*
X87455Y120150D02*X89455D01*
X87455D02*Y118150D01*
X87955Y118650D01*
X88955D01*
X89455Y118150D01*
Y116650D01*
X88955Y116150D02*X89455Y116650D01*
X87955Y116150D02*X88955D01*
X87455Y116650D02*X87955Y116150D01*
X73850Y125424D02*Y124124D01*
X73150Y123424D02*X73850Y124124D01*
X70550Y123424D02*X73150D01*
X70550D02*X69850Y124124D01*
Y125424D02*Y124124D01*
X70650Y126624D02*X69850Y127424D01*
X73850D01*
Y128124D02*Y126624D01*
Y129824D02*X71850Y131324D01*
X70350D02*X71850D01*
X69850Y130824D02*X70350Y131324D01*
X69850Y130824D02*Y129824D01*
X70350Y129324D02*X69850Y129824D01*
X70350Y129324D02*X71350D01*
X71850Y129824D01*
Y131324D02*Y129824D01*
X68850Y125424D02*Y124124D01*
X68150Y123424D02*X68850Y124124D01*
X65550Y123424D02*X68150D01*
X65550D02*X64850Y124124D01*
Y125424D02*Y124124D01*
X65650Y126624D02*X64850Y127424D01*
X68850D01*
Y128124D02*Y126624D01*
X68350Y129324D02*X68850Y129824D01*
X67550Y129324D02*X68350D01*
X67550D02*X66850Y130024D01*
Y130624D02*Y130024D01*
Y130624D02*X67550Y131324D01*
X68350D01*
X68850Y130824D02*X68350Y131324D01*
X68850Y130824D02*Y129824D01*
X66150Y129324D02*X66850Y130024D01*
X65350Y129324D02*X66150D01*
X65350D02*X64850Y129824D01*
Y130824D02*Y129824D01*
Y130824D02*X65350Y131324D01*
X66150D01*
X66850Y130624D02*X66150Y131324D01*
X79850Y127393D02*Y126093D01*
X79150Y125393D02*X79850Y126093D01*
X76550Y125393D02*X79150D01*
X76550D02*X75850Y126093D01*
Y127393D02*Y126093D01*
X76350Y128593D02*X75850Y129093D01*
Y130593D02*Y129093D01*
Y130593D02*X76350Y131093D01*
X77350D01*
X79850Y128593D02*X77350Y131093D01*
X79850D02*Y128593D01*
X79350Y132293D02*X79850Y132793D01*
X76350Y132293D02*X79350D01*
X76350D02*X75850Y132793D01*
Y133793D02*Y132793D01*
Y133793D02*X76350Y134293D01*
X79350D01*
X79850Y133793D02*X79350Y134293D01*
X79850Y133793D02*Y132793D01*
X78850Y132293D02*X76850Y134293D01*
X65755Y111150D02*X67755D01*
X68255Y110650D01*
Y109650D01*
X67755Y109150D02*X68255Y109650D01*
X66255Y109150D02*X67755D01*
X66255Y111150D02*Y107150D01*
X67055Y109150D02*X68255Y107150D01*
X69455Y110650D02*X69955Y111150D01*
X71455D01*
X71955Y110650D01*
Y109650D01*
X69455Y107150D02*X71955Y109650D01*
X69455Y107150D02*X71955D01*
X48124Y115250D02*X49424D01*
X47424Y115950D02*X48124Y115250D01*
X47424Y118550D02*Y115950D01*
Y118550D02*X48124Y119250D01*
X49424D01*
X51124Y115250D02*X52624Y117250D01*
Y118750D02*Y117250D01*
X52124Y119250D02*X52624Y118750D01*
X51124Y119250D02*X52124D01*
X50624Y118750D02*X51124Y119250D01*
X50624Y118750D02*Y117750D01*
X51124Y117250D01*
X52624D01*
X48124Y111250D02*X49424D01*
X47424Y111950D02*X48124Y111250D01*
X47424Y114550D02*Y111950D01*
Y114550D02*X48124Y115250D01*
X49424D01*
X50624Y114450D02*X51424Y115250D01*
Y111250D01*
X50624D02*X52124D01*
X53324Y111750D02*X53824Y111250D01*
X53324Y114750D02*Y111750D01*
Y114750D02*X53824Y115250D01*
X54824D01*
X55324Y114750D01*
Y111750D01*
X54824Y111250D02*X55324Y111750D01*
X53824Y111250D02*X54824D01*
X53324Y112250D02*X55324Y114250D01*
X48093Y106250D02*X49393D01*
X47393Y106950D02*X48093Y106250D01*
X47393Y109550D02*Y106950D01*
Y109550D02*X48093Y110250D01*
X49393D01*
X50593Y109450D02*X51393Y110250D01*
Y106250D01*
X50593D02*X52093D01*
X53293Y109450D02*X54093Y110250D01*
Y106250D01*
X53293D02*X54793D01*
X48093Y120250D02*X49393D01*
X47393Y120950D02*X48093Y120250D01*
X47393Y123550D02*Y120950D01*
Y123550D02*X48093Y124250D01*
X49393D01*
X50593Y120750D02*X51093Y120250D01*
X50593Y121550D02*Y120750D01*
Y121550D02*X51293Y122250D01*
X51893D01*
X52593Y121550D01*
Y120750D01*
X52093Y120250D02*X52593Y120750D01*
X51093Y120250D02*X52093D01*
X50593Y122950D02*X51293Y122250D01*
X50593Y123750D02*Y122950D01*
Y123750D02*X51093Y124250D01*
X52093D01*
X52593Y123750D01*
Y122950D01*
X51893Y122250D02*X52593Y122950D01*
X72000Y58000D02*X75500D01*
X76000Y58500D01*
Y59500D02*Y58500D01*
Y59500D02*X75500Y60000D01*
X72000D02*X75500D01*
X72000Y63200D02*Y61200D01*
X74000D01*
X73500Y61700D01*
Y62700D02*Y61700D01*
Y62700D02*X74000Y63200D01*
X75500D01*
X76000Y62700D02*X75500Y63200D01*
X76000Y62700D02*Y61700D01*
X75500Y61200D02*X76000Y61700D01*
X79000Y26500D02*Y23000D01*
Y26500D02*X78500Y27000D01*
X77500D02*X78500D01*
X77500D02*X77000Y26500D01*
Y23000D01*
X75300Y27000D02*X73800Y25000D01*
Y23500D01*
X74300Y23000D02*X73800Y23500D01*
X74300Y23000D02*X75300D01*
X75800Y23500D02*X75300Y23000D01*
X75800Y24500D02*Y23500D01*
Y24500D02*X75300Y25000D01*
X73800D02*X75300D01*
X76850Y88424D02*Y87124D01*
X76150Y86424D02*X76850Y87124D01*
X73550Y86424D02*X76150D01*
X73550D02*X72850Y87124D01*
Y88424D02*Y87124D01*
X73350Y89624D02*X72850Y90124D01*
Y91624D02*Y90124D01*
Y91624D02*X73350Y92124D01*
X74350D01*
X76850Y89624D02*X74350Y92124D01*
X76850D02*Y89624D01*
Y93824D02*X74850Y95324D01*
X73350D02*X74850D01*
X72850Y94824D02*X73350Y95324D01*
X72850Y94824D02*Y93824D01*
X73350Y93324D02*X72850Y93824D01*
X73350Y93324D02*X74350D01*
X74850Y93824D01*
Y95324D02*Y93824D01*
X80850Y88424D02*Y87124D01*
X80150Y86424D02*X80850Y87124D01*
X77550Y86424D02*X80150D01*
X77550D02*X76850Y87124D01*
Y88424D02*Y87124D01*
X77350Y89624D02*X76850Y90124D01*
Y91624D02*Y90124D01*
Y91624D02*X77350Y92124D01*
X78350D01*
X80850Y89624D02*X78350Y92124D01*
X80850D02*Y89624D01*
X80350Y93324D02*X80850Y93824D01*
X79550Y93324D02*X80350D01*
X79550D02*X78850Y94024D01*
Y94624D02*Y94024D01*
Y94624D02*X79550Y95324D01*
X80350D01*
X80850Y94824D02*X80350Y95324D01*
X80850Y94824D02*Y93824D01*
X78150Y93324D02*X78850Y94024D01*
X77350Y93324D02*X78150D01*
X77350D02*X76850Y93824D01*
Y94824D02*Y93824D01*
Y94824D02*X77350Y95324D01*
X78150D01*
X78850Y94624D02*X78150Y95324D01*
X70850Y88393D02*Y87093D01*
X70150Y86393D02*X70850Y87093D01*
X67550Y86393D02*X70150D01*
X67550D02*X66850Y87093D01*
Y88393D02*Y87093D01*
X67350Y89593D02*X66850Y90093D01*
Y91093D02*Y90093D01*
Y91093D02*X67350Y91593D01*
X70850Y91093D02*X70350Y91593D01*
X70850Y91093D02*Y90093D01*
X70350Y89593D02*X70850Y90093D01*
X68650Y91093D02*Y90093D01*
X67350Y91593D02*X68150D01*
X69150D02*X70350D01*
X69150D02*X68650Y91093D01*
X68150Y91593D02*X68650Y91093D01*
X70350Y92793D02*X70850Y93293D01*
X67350Y92793D02*X70350D01*
X67350D02*X66850Y93293D01*
Y94293D02*Y93293D01*
Y94293D02*X67350Y94793D01*
X70350D01*
X70850Y94293D02*X70350Y94793D01*
X70850Y94293D02*Y93293D01*
X69850Y92793D02*X67850Y94793D01*
X86850Y88393D02*Y87093D01*
X86150Y86393D02*X86850Y87093D01*
X83550Y86393D02*X86150D01*
X83550D02*X82850Y87093D01*
Y88393D02*Y87093D01*
X83350Y89593D02*X82850Y90093D01*
Y91593D02*Y90093D01*
Y91593D02*X83350Y92093D01*
X84350D01*
X86850Y89593D02*X84350Y92093D01*
X86850D02*Y89593D01*
Y93793D02*X82850Y95793D01*
Y93293D01*
X65755Y102150D02*X67755D01*
X68255Y101650D01*
Y100650D01*
X67755Y100150D02*X68255Y100650D01*
X66255Y100150D02*X67755D01*
X66255Y102150D02*Y98150D01*
X67055Y100150D02*X68255Y98150D01*
X70955Y102150D02*X71455Y101650D01*
X69955Y102150D02*X70955D01*
X69455Y101650D02*X69955Y102150D01*
X69455Y101650D02*Y98650D01*
X69955Y98150D01*
X70955Y100350D02*X71455Y99850D01*
X69455Y100350D02*X70955D01*
X69955Y98150D02*X70955D01*
X71455Y98650D01*
Y99850D02*Y98650D01*
X53400Y101000D02*Y97500D01*
Y101000D02*X52900Y101500D01*
X51900D02*X52900D01*
X51900D02*X51400Y101000D01*
Y97500D01*
X50200Y98300D02*X49400Y97500D01*
Y101500D02*Y97500D01*
X48700Y101500D02*X50200D01*
X100600Y101600D02*Y98100D01*
X101100Y97600D01*
X102100D01*
X102600Y98100D01*
Y101600D02*Y98100D01*
X103800Y101100D02*X104300Y101600D01*
X105800D01*
X106300Y101100D01*
Y100100D01*
X103800Y97600D02*X106300Y100100D01*
X103800Y97600D02*X106300D01*
X83755Y102150D02*X85755D01*
X86255Y101650D01*
Y100650D01*
X85755Y100150D02*X86255Y100650D01*
X84255Y100150D02*X85755D01*
X84255Y102150D02*Y98150D01*
X85055Y100150D02*X86255Y98150D01*
X87955D02*X89955Y102150D01*
X87455D02*X89955D01*
X88055Y106850D02*X90055D01*
X88055D02*X87555Y107350D01*
Y108350D02*Y107350D01*
X88055Y108850D02*X87555Y108350D01*
X88055Y108850D02*X89555D01*
Y110850D02*Y106850D01*
X88755Y108850D02*X87555Y110850D01*
X86355Y107350D02*X85855Y106850D01*
X84855D02*X85855D01*
X84855D02*X84355Y107350D01*
X84855Y110850D02*X84355Y110350D01*
X84855Y110850D02*X85855D01*
X86355Y110350D02*X85855Y110850D01*
X84855Y108650D02*X85855D01*
X84355Y108150D02*Y107350D01*
Y110350D02*Y109150D01*
X84855Y108650D01*
X84355Y108150D02*X84855Y108650D01*
X24000Y116000D02*Y112500D01*
X24500Y112000D01*
X25500D01*
X26000Y112500D01*
Y116000D02*Y112500D01*
X27200Y115500D02*X27700Y116000D01*
X28700D01*
X29200Y115500D01*
X28700Y112000D02*X29200Y112500D01*
X27700Y112000D02*X28700D01*
X27200Y112500D02*X27700Y112000D01*
Y114200D02*X28700D01*
X29200Y115500D02*Y114700D01*
Y113700D02*Y112500D01*
Y113700D02*X28700Y114200D01*
X29200Y114700D02*X28700Y114200D01*
X163500Y113000D02*X167000D01*
X163500D02*X163000Y112500D01*
Y111500D01*
X163500Y111000D01*
X167000D01*
X166200Y109800D02*X167000Y109000D01*
X163000D02*X167000D01*
X163000Y109800D02*Y108300D01*
X163500Y107100D02*X163000Y106600D01*
X163500Y107100D02*X166500D01*
X167000Y106600D01*
Y105600D01*
X166500Y105100D01*
X163500D02*X166500D01*
X163000Y105600D02*X163500Y105100D01*
X163000Y106600D02*Y105600D01*
X164000Y107100D02*X166000Y105100D01*
X157093Y181150D02*X158393D01*
X156393Y181850D02*X157093Y181150D01*
X156393Y184450D02*Y181850D01*
Y184450D02*X157093Y185150D01*
X158393D01*
X159593Y184650D02*X160093Y185150D01*
X161593D01*
X162093Y184650D01*
Y183650D01*
X159593Y181150D02*X162093Y183650D01*
X159593Y181150D02*X162093D01*
X163293Y185150D02*X165293D01*
X163293D02*Y183150D01*
X163793Y183650D01*
X164793D01*
X165293Y183150D01*
Y181650D01*
X164793Y181150D02*X165293Y181650D01*
X163793Y181150D02*X164793D01*
X163293Y181650D02*X163793Y181150D01*
X132000Y109500D02*Y106000D01*
Y109500D02*X131500Y110000D01*
X130500D02*X131500D01*
X130500D02*X130000Y109500D01*
Y106000D01*
X128800Y108500D02*X126800Y106000D01*
X126300Y108500D02*X128800D01*
X126800Y110000D02*Y106000D01*
X103093Y106250D02*X104393D01*
X102393Y106950D02*X103093Y106250D01*
X102393Y109550D02*Y106950D01*
Y109550D02*X103093Y110250D01*
X104393D01*
X105593Y109450D02*X106393Y110250D01*
Y106250D01*
X105593D02*X107093D01*
X108793D02*X110793Y110250D01*
X108293D02*X110793D01*
X101976Y111250D02*X103276D01*
X101276Y111950D02*X101976Y111250D01*
X101276Y114550D02*Y111950D01*
Y114550D02*X101976Y115250D01*
X103276D01*
X104476Y114450D02*X105276Y115250D01*
Y111250D01*
X104476D02*X105976D01*
X107176Y115250D02*X109176D01*
X107176D02*Y113250D01*
X107676Y113750D01*
X108676D01*
X109176Y113250D01*
Y111750D01*
X108676Y111250D02*X109176Y111750D01*
X107676Y111250D02*X108676D01*
X107176Y111750D02*X107676Y111250D01*
X102124Y115250D02*X103424D01*
X101424Y115950D02*X102124Y115250D01*
X101424Y118550D02*Y115950D01*
Y118550D02*X102124Y119250D01*
X103424D01*
X104624Y118450D02*X105424Y119250D01*
Y115250D01*
X104624D02*X106124D01*
X107324Y116750D02*X109324Y119250D01*
X107324Y116750D02*X109824D01*
X109324Y119250D02*Y115250D01*
X103093Y120250D02*X104393D01*
X102393Y120950D02*X103093Y120250D01*
X102393Y123550D02*Y120950D01*
Y123550D02*X103093Y124250D01*
X104393D01*
X105593Y123450D02*X106393Y124250D01*
Y120250D01*
X105593D02*X107093D01*
X108293Y123750D02*X108793Y124250D01*
X110293D01*
X110793Y123750D01*
Y122750D01*
X108293Y120250D02*X110793Y122750D01*
X108293Y120250D02*X110793D01*
X98093Y129150D02*X99393D01*
X97393Y129850D02*X98093Y129150D01*
X97393Y132450D02*Y129850D01*
Y132450D02*X98093Y133150D01*
X99393D01*
X101093Y129150D02*X103093Y133150D01*
X100593D02*X103093D01*
X98124Y136150D02*X99424D01*
X97424Y136850D02*X98124Y136150D01*
X97424Y139450D02*Y136850D01*
Y139450D02*X98124Y140150D01*
X99424D01*
X102124D02*X102624Y139650D01*
X101124Y140150D02*X102124D01*
X100624Y139650D02*X101124Y140150D01*
X100624Y139650D02*Y136650D01*
X101124Y136150D01*
X102124Y138350D02*X102624Y137850D01*
X100624Y138350D02*X102124D01*
X101124Y136150D02*X102124D01*
X102624Y136650D01*
Y137850D02*Y136650D01*
X98124Y141150D02*X99424D01*
X97424Y141850D02*X98124Y141150D01*
X97424Y144450D02*Y141850D01*
Y144450D02*X98124Y145150D01*
X99424D01*
X100624D02*X102624D01*
X100624D02*Y143150D01*
X101124Y143650D01*
X102124D01*
X102624Y143150D01*
Y141650D01*
X102124Y141150D02*X102624Y141650D01*
X101124Y141150D02*X102124D01*
X100624Y141650D02*X101124Y141150D01*
X98124Y146150D02*X99424D01*
X97424Y146850D02*X98124Y146150D01*
X97424Y149450D02*Y146850D01*
Y149450D02*X98124Y150150D01*
X99424D01*
X100624Y147650D02*X102624Y150150D01*
X100624Y147650D02*X103124D01*
X102624Y150150D02*Y146150D01*
X98124Y152150D02*X99424D01*
X97424Y152850D02*X98124Y152150D01*
X97424Y155450D02*Y152850D01*
Y155450D02*X98124Y156150D01*
X99424D01*
X100624Y155650D02*X101124Y156150D01*
X102124D01*
X102624Y155650D01*
X102124Y152150D02*X102624Y152650D01*
X101124Y152150D02*X102124D01*
X100624Y152650D02*X101124Y152150D01*
Y154350D02*X102124D01*
X102624Y155650D02*Y154850D01*
Y153850D02*Y152650D01*
Y153850D02*X102124Y154350D01*
X102624Y154850D02*X102124Y154350D01*
X100093Y159150D02*X101393D01*
X99393Y159850D02*X100093Y159150D01*
X99393Y162450D02*Y159850D01*
Y162450D02*X100093Y163150D01*
X101393D01*
X102593Y162650D02*X103093Y163150D01*
X104593D01*
X105093Y162650D01*
Y161650D01*
X102593Y159150D02*X105093Y161650D01*
X102593Y159150D02*X105093D01*
X133500Y166000D02*X137000D01*
X133500D02*X133000Y165500D01*
Y164500D01*
X133500Y164000D01*
X137000D01*
Y161300D02*X136500Y160800D01*
X137000Y162300D02*Y161300D01*
X136500Y162800D02*X137000Y162300D01*
X133500Y162800D02*X136500D01*
X133500D02*X133000Y162300D01*
X135200Y161300D02*X134700Y160800D01*
X135200Y162800D02*Y161300D01*
X133000Y162300D02*Y161300D01*
X133500Y160800D01*
X134700D01*
X184000Y171300D02*Y170000D01*
X184700Y172000D02*X184000Y171300D01*
X184700Y172000D02*X187300D01*
X188000Y171300D01*
Y170000D01*
X187500Y168800D02*X188000Y168300D01*
Y166800D01*
X187500Y166300D01*
X186500D02*X187500D01*
X184000Y168800D02*X186500Y166300D01*
X184000Y168800D02*Y166300D01*
X188000Y163600D02*X187500Y163100D01*
X188000Y164600D02*Y163600D01*
X187500Y165100D02*X188000Y164600D01*
X184500Y165100D02*X187500D01*
X184500D02*X184000Y164600D01*
X186200Y163600D02*X185700Y163100D01*
X186200Y165100D02*Y163600D01*
X184000Y164600D02*Y163600D01*
X184500Y163100D01*
X185700D01*
X195700Y166000D02*X197000D01*
X195000Y166700D02*X195700Y166000D01*
X195000Y169300D02*Y166700D01*
Y169300D02*X195700Y170000D01*
X197000D01*
X198200Y169500D02*X198700Y170000D01*
X200200D01*
X200700Y169500D01*
Y168500D01*
X198200Y166000D02*X200700Y168500D01*
X198200Y166000D02*X200700D01*
X201900Y167500D02*X203900Y170000D01*
X201900Y167500D02*X204400D01*
X203900Y170000D02*Y166000D01*
M02*
